<svg version="1.2" xmlns="http://www.w3.org/2000/svg" viewBox="0 0 31 31" width="31" height="31">
	<title>check</title>
	<style>
		.s0 { fill: #ffffff } 
	</style>
	<g id="Layer">
		<path id="Layer" fill-rule="evenodd" class="s0" d="m15.5 31c-8.6 0-15.5-6.9-15.5-15.5 0-8.6 6.9-15.5 15.5-15.5 8.6 0 15.5 6.9 15.5 15.5 0 8.6-6.9 15.5-15.5 15.5zm12.7-15.5c0-7-5.7-12.7-12.7-12.7-7 0-12.7 5.7-12.7 12.7 0 7 5.7 12.7 12.7 12.7 7 0 12.7-5.7 12.7-12.7z"/>
		<path id="Layer" class="s0" d="m23.3 10c0.6 0.6 0.6 1.5 0 2l-9 9c-0.2 0.2-0.6 0.4-1 0.4q0 0 0 0c-0.3 0-0.7-0.2-1-0.4l-4.6-4.7c-0.6-0.5-0.6-1.4 0-2 0.5-0.5 1.4-0.5 2 0l3.6 3.7 8-8c0.6-0.5 1.5-0.5 2 0z"/>
	</g>
	<g id="Layer">
	</g>
	<g id="Layer">
	</g>
	<g id="Layer">
	</g>
	<g id="Layer">
	</g>
	<g id="Layer">
	</g>
	<g id="Layer">
	</g>
	<g id="Layer">
	</g>
	<g id="Layer">
	</g>
	<g id="Layer">
	</g>
	<g id="Layer">
	</g>
	<g id="Layer">
	</g>
	<g id="Layer">
	</g>
	<g id="Layer">
	</g>
	<g id="Layer">
	</g>
	<g id="Layer">
	</g>
</svg>