<svg version="1.2" xmlns="http://www.w3.org/2000/svg" viewBox="0 0 31 31" width="31" height="31">
	<title>palette-svgrepo-com-svg</title>
	<style>
		.s0 { fill: none } 
		.s1 { fill: #000000 } 
	</style>
	<g id="Layer">
		<path id="Layer" class="s0" d="m-3.1-3.1h37.2v37.2h-37.2z"/>
		<path id="Layer" fill-rule="evenodd" class="s1" d="m15.5 0c8.6 0 15.5 6.2 15.5 13.8 0 1.1-0.2 2.2-0.7 3.3-0.4 1-1 2-1.8 2.8-0.8 0.8-1.8 1.4-2.8 1.8-1.1 0.5-2.2 0.7-3.3 0.7h-3.1c-1.4 0-2.5 1.1-2.5 2.6 0 0.6 0.2 1.2 0.6 1.7 0.4 0.4 0.7 1 0.7 1.7 0 1.4-1.2 2.6-2.6 2.6-8.6 0-15.5-6.9-15.5-15.5 0-8.6 6.9-15.5 15.5-15.5zm-1.8 25q0-1.2 0.4-2.2 0.4-1 1.2-1.8 0.8-0.8 1.9-1.3 1-0.4 2.1-0.4h3.1q1.1 0 2.1-0.4 1-0.5 1.8-1.2 0.8-0.8 1.2-1.8 0.4-1 0.4-2.1c0-5.8-5.5-10.7-12.4-10.7-3.2 0-6.3 1.2-8.6 3.4-2.3 2.3-3.7 5.3-3.8 8.5-0.1 3.2 1 6.3 3.1 8.7 2.1 2.4 5.1 3.9 8.3 4.2q-0.2-0.4-0.4-0.7-0.1-0.4-0.2-0.7-0.1-0.4-0.2-0.8 0-0.3 0-0.7zm-5.2-9.5c-0.6 0-1.2-0.2-1.6-0.7-0.5-0.4-0.7-1-0.7-1.6 0-0.6 0.2-1.2 0.7-1.7 0.4-0.4 1-0.7 1.6-0.7 0.6 0 1.2 0.3 1.7 0.7 0.4 0.5 0.6 1.1 0.6 1.7 0 0.6-0.2 1.2-0.6 1.6-0.5 0.5-1.1 0.7-1.7 0.7zm14 0c-0.6 0-1.2-0.2-1.7-0.7-0.4-0.4-0.6-1-0.6-1.6 0-0.6 0.2-1.2 0.6-1.7 0.5-0.4 1.1-0.7 1.7-0.7 0.6 0 1.2 0.3 1.6 0.7 0.5 0.5 0.7 1.1 0.7 1.7 0 0.6-0.2 1.2-0.7 1.6-0.4 0.5-1 0.7-1.6 0.7zm-7-4.7c-0.6 0.1-1.2-0.2-1.6-0.6-0.5-0.5-0.7-1.1-0.7-1.7 0-0.6 0.2-1.2 0.7-1.6 0.4-0.5 1-0.7 1.6-0.7 0.6 0 1.2 0.2 1.6 0.7 0.5 0.4 0.7 1 0.7 1.6 0 0.6-0.2 1.2-0.7 1.7-0.4 0.4-1 0.7-1.6 0.7z"/>
	</g>
</svg>