<svg version="1.2" xmlns="http://www.w3.org/2000/svg" viewBox="0 0 30 30" width="30" height="30">
	<title>sun</title>
	<style>
		.s0 { fill: #000000 } 
	</style>
	<g id="Layer">
		<g id="Layer">
			<path id="Layer" class="s0" d="m16.3 27.3v1.7c0 0.7-0.6 1.3-1.3 1.3-0.7 0-1.3-0.6-1.3-1.3v-1.7c0-0.7 0.6-1.3 1.3-1.3 0.7 0 1.3 0.6 1.3 1.3z"/>
			<path id="Layer" fill-rule="evenodd" class="s0" d="m15 24.6c-5.3 0-9.6-4.3-9.6-9.6 0-5.3 4.3-9.6 9.6-9.6 5.3 0 9.6 4.3 9.6 9.6 0 5.3-4.3 9.6-9.6 9.6zm7-9.6c0-3.9-3.1-7-7-7-3.9 0-7 3.1-7 7 0 3.9 3.1 7 7 7 3.9 0 7-3.1 7-7z"/>
			<path id="Layer" class="s0" d="m13.7 2.7v-1.7c0-0.7 0.6-1.3 1.3-1.3 0.7 0 1.3 0.6 1.3 1.3v1.7c0 0.7-0.6 1.3-1.3 1.3-0.7 0-1.3-0.6-1.3-1.3z"/>
			<path id="Layer" class="s0" d="m30.3 15c0 0.7-0.6 1.3-1.3 1.3h-1.7c-0.7 0-1.3-0.6-1.3-1.3 0-0.7 0.6-1.3 1.3-1.3h1.7c0.7 0 1.3 0.6 1.3 1.3z"/>
			<path id="Layer" class="s0" d="m4 15c0 0.7-0.6 1.3-1.3 1.3h-1.7c-0.7 0-1.3-0.6-1.3-1.3 0-0.7 0.6-1.3 1.3-1.3h1.7c0.7 0 1.3 0.6 1.3 1.3z"/>
			<path id="Layer" class="s0" d="m22.8 7.2c-0.5-0.5-0.5-1.3 0-1.8l1.2-1.2c0.5-0.5 1.3-0.5 1.8 0 0.5 0.5 0.5 1.3 0 1.8l-1.2 1.2c-0.5 0.5-1.3 0.5-1.8 0z"/>
			<path id="Layer" class="s0" d="m7.2 22.8c0.5 0.5 0.5 1.3 0 1.8l-1.2 1.2c-0.5 0.5-1.3 0.5-1.8 0-0.5-0.5-0.5-1.3 0-1.8l1.2-1.2c0.5-0.5 1.3-0.5 1.8 0z"/>
			<path id="Layer" class="s0" d="m25.8 24c0.5 0.5 0.5 1.3 0 1.8-0.5 0.5-1.3 0.5-1.8 0l-1.2-1.2c-0.5-0.5-0.5-1.3 0-1.8 0.5-0.5 1.3-0.5 1.8 0z"/>
			<path id="Layer" class="s0" d="m4.2 6c-0.5-0.5-0.5-1.3 0-1.8 0.5-0.5 1.3-0.5 1.8 0l1.2 1.2c0.5 0.5 0.5 1.3 0 1.8-0.5 0.5-1.3 0.5-1.8 0z"/>
		</g>
	</g>
</svg>