<svg version="1.2" xmlns="http://www.w3.org/2000/svg" viewBox="0 0 31 31" width="31" height="31">
	<title>trash</title>
	<style>
		.s0 { fill: #ffffff } 
	</style>
	<path id="Layer" fill-rule="evenodd" class="s0" d="m27.9 6.3c0 0.8-0.6 1.4-1.4 1.4h-0.2v21.9c0 0.8-0.6 1.4-1.3 1.4h-19c-0.7 0-1.3-0.6-1.3-1.4v-21.9h-0.2c-0.8 0-1.4-0.6-1.4-1.4 0-0.7 0.6-1.3 1.4-1.3h4.3v-3.6c0-0.8 0.6-1.4 1.4-1.4h10.6c0.8 0 1.4 0.6 1.4 1.4v3.6h4.3c0.8 0 1.4 0.6 1.4 1.3zm-16.3-1.3h7.8v-2.2h-7.8zm12 2.8h-16.2v20.4h16.2z"/>
	<path id="Layer" class="s0" d="m9.8 23.7v-10.1c0-0.8 0.6-1.4 1.3-1.4 0.8 0 1.4 0.6 1.4 1.4v10.1c0 0.7-0.6 1.4-1.4 1.4-0.7 0-1.3-0.7-1.3-1.4z"/>
	<path id="Layer" class="s0" d="m14.1 23.7v-10.1c0-0.8 0.6-1.4 1.4-1.4 0.8 0 1.4 0.6 1.4 1.4v10.1c0 0.7-0.6 1.4-1.4 1.4-0.8 0-1.4-0.7-1.4-1.4z"/>
	<path id="Layer" class="s0" d="m18.5 23.7v-10.1c0-0.8 0.6-1.4 1.4-1.4 0.7 0 1.3 0.6 1.3 1.4v10.1c0 0.7-0.6 1.4-1.3 1.4-0.8 0-1.4-0.7-1.4-1.4z"/>
</svg>