<svg version="1.2" xmlns="http://www.w3.org/2000/svg" viewBox="0 0 31 31" width="31" height="31">
	<title>whatsapp</title>
	<style>
		.s0 { fill: none;stroke: #ffffff;stroke-width: .9 } 
	</style>
	<path id="Layer" fill-rule="evenodd" class="s0" d="m29.8 14.5c0 7.6-6.2 13.7-13.7 13.7-2.4 0-4.7-0.7-6.7-1.7l-7.6 2.4 2.5-7.3c-1.2-2.1-2-4.5-2-7.1 0-7.5 6.2-13.6 13.8-13.6 7.5 0 13.7 6.1 13.7 13.6zm-13.7-11.4c-6.4 0-11.6 5.1-11.6 11.4 0 2.5 0.8 4.9 2.2 6.7l-1.4 4.3 4.4-1.4c1.8 1.2 4 1.9 6.4 1.9 6.3 0 11.5-5.2 11.5-11.5 0-6.3-5.2-11.4-11.5-11.4zm6.7 16.2c-0.3 0.7-1.7 1.5-2.3 1.5-0.6 0.1-0.6 0.5-4-0.8-3.4-1.3-5.6-4.8-5.8-5-0.1-0.2-1.3-1.8-1.3-3.5 0-1.6 0.8-2.4 1.1-2.8 0.3-0.3 0.7-0.4 0.9-0.4q0.4 0 0.7 0c0.2 0 0.5-0.1 0.7 0.6 0.3 0.7 1 2.3 1.1 2.5 0.1 0.2 0.1 0.3 0 0.6-0.1 0.2-0.2 0.3-0.3 0.5-0.2 0.2-0.4 0.5-0.5 0.6-0.2 0.2-0.4 0.4-0.2 0.7 0.2 0.3 0.9 1.4 1.9 2.3 1.3 1.1 2.4 1.5 2.7 1.7 0.3 0.1 0.5 0.1 0.7-0.1 0.2-0.3 0.9-1 1.1-1.3 0.2-0.4 0.4-0.3 0.7-0.2 0.4 0.1 2 0.9 2.3 1.1 0.4 0.1 0.6 0.2 0.7 0.4 0.1 0.1 0.1 0.8-0.2 1.6z"/>
</svg>